<svg id="Layer_1" data-name="Layer 1" xmlns="http://www.w3.org/2000/svg" viewBox="0 0 1920 488.76"><defs><style>.cls-1{fill:#fff;}</style></defs><title>White Artifax Logo (Vector)</title><path class="cls-1" d="M0,411.59,216.66,0h68.59L374.9,411.59H303.35l-19.43-102.9H121.8L74.9,411.59ZM155.3,244.38H269.86l-33.5-156.1Z"/><path class="cls-1" d="M418.55,77.17H546.67c59.52,0,95.33,43.6,95.33,97.13,0,41.94-27.74,84.43-76.67,94.36l55.48,142.93h-46.5L513.83,270.1H470V411.59H418.55Zm64.31,64.31v77.18h71.7c31.86,0,47.3-17.43,47.3-38.34,0-20.42-15.44-38.84-43.82-38.84Z"/><path class="cls-1" d="M765.82,398.72V128.62h-90V77.17H920.17v51.45H817.27v270.1Z"/><path class="cls-1" d="M958.75,398.72V77.17h51.45V398.72Z"/><path class="cls-1" d="M1087.37,398.72V77.17h205.79v51.45H1138.82v90h115.76V270.1H1138.82V398.72Z"/><path class="cls-1" d="M1230.3,411.59l176-334.42h55.73l72.84,334.42h-53.5l-16.58-77.18H1326.5l-40,77.18ZM1356.88,283h91.65l-26.8-124.89Z"/><path class="cls-1" d="M1511.14,488.76l142.62-182L1534.23,77.17h75.39L1699.27,249,1833.74,77.17H1920l-186.77,237,91.69,174.55h-76.07l-61.13-116.14L1596,488.76Z"/></svg>